<svg width="17" height="16" viewBox="0 0 17 16" fill="none" xmlns="http://www.w3.org/2000/svg">
<path d="M4.75 2.33325C4.75 2.06659 4.85 1.83325 5.05 1.63325C5.25 1.43325 5.48333 1.33325 5.75 1.33325L11.75 1.33325C12.0056 1.33325 12.2361 1.43325 12.4417 1.63325C12.6472 1.83325 12.75 2.06659 12.75 2.33325V13.6666C12.75 13.9333 12.6472 14.1666 12.4417 14.3666C12.2361 14.5666 12.0056 14.6666 11.75 14.6666H5.75C5.48333 14.6666 5.25 14.5666 5.05 14.3666C4.85 14.1666 4.75 13.9333 4.75 13.6666L4.75 2.33325ZM5.75 2.33325L5.75 13.6666H11.75V11.4999H8.75V10.4999H11.75V8.49992H8.75V7.49992H11.75V5.49992H8.75V4.49992H11.75V2.33325L5.75 2.33325ZM8.75 4.49992V5.49992V4.49992ZM8.75 7.49992V8.49992V7.49992ZM8.75 10.4999V11.4999V10.4999Z" fill="#1D1D1D"/>
</svg>
