<svg width="17" height="16" viewBox="0 0 17 16" fill="none" xmlns="http://www.w3.org/2000/svg">
<path d="M4.36659 13.0001H13.1333L12.0833 5.66675H5.41659L4.36659 13.0001ZM8.74992 4.66675C9.03881 4.66675 9.2777 4.56953 9.46659 4.37508C9.65547 4.18064 9.74992 3.94453 9.74992 3.66675C9.74992 3.37786 9.65547 3.13897 9.46659 2.95008C9.2777 2.76119 9.03881 2.66675 8.74992 2.66675C8.47214 2.66675 8.23603 2.76119 8.04159 2.95008C7.84714 3.13897 7.74992 3.37786 7.74992 3.66675C7.74992 3.94453 7.84714 4.18064 8.04159 4.37508C8.23603 4.56953 8.47214 4.66675 8.74992 4.66675ZM10.4833 4.66675H12.0833C12.3388 4.66675 12.561 4.7473 12.7499 4.90841C12.9388 5.06953 13.0499 5.27786 13.0833 5.53341L14.1166 12.8667C14.161 13.1667 14.086 13.4306 13.8916 13.6584C13.6971 13.8862 13.4444 14.0001 13.1333 14.0001H4.36659C4.05547 14.0001 3.8027 13.8862 3.60825 13.6584C3.41381 13.4306 3.33881 13.1667 3.38325 12.8667L4.41659 5.53341C4.44992 5.27786 4.56103 5.06953 4.74992 4.90841C4.93881 4.7473 5.16103 4.66675 5.41659 4.66675H7.01659C6.9277 4.51119 6.86103 4.35286 6.81659 4.19175C6.77214 4.03064 6.74992 3.85564 6.74992 3.66675C6.74992 3.11119 6.94436 2.63897 7.33325 2.25008C7.72214 1.86119 8.19436 1.66675 8.74992 1.66675C9.30547 1.66675 9.7777 1.86119 10.1666 2.25008C10.5555 2.63897 10.7499 3.11119 10.7499 3.66675C10.7499 3.85564 10.7277 4.03064 10.6833 4.19175C10.6388 4.35286 10.5721 4.51119 10.4833 4.66675ZM4.36659 13.0001H13.1333H4.36659Z" fill="#1D1D1D"/>
</svg>
